<svg width="200" height="200" viewBox="0 0 200 200" fill="none" xmlns="http://www.w3.org/2000/svg">
  <circle cx="100" cy="100" r="100" fill="#22C55E" opacity="0.1"/>
  <path d="M70 75.5C70 67.492 76.492 61 84.5 61C92.508 61 99 67.492 99 75.5V125.5H70V75.5Z" fill="#22C55E"/>
  <path d="M99 75.5C99 67.492 105.492 61 113.5 61C121.508 61 128 67.492 128 75.5V129H99V75.5Z" fill="#22C55E"/>
  <path d="M128 85.5C128 77.492 134.492 71 142.5 71C150.508 71 157 77.492 157 85.5V133H128V85.5Z" fill="#22C55E"/>
  <path d="M70 125.5C70 145.106 85.8924 161 105.5 161C125.107 161 141 145.106 141 125.5H70Z" fill="#22C55E"/>
</svg>
