<svg width="40" height="40" viewBox="0 0 40 40" fill="none" xmlns="http://www.w3.org/2000/svg">
<path d="M18.3017 14.9854C15.0418 14.9854 12.5 17.5271 12.5 20.787C12.5 24.0469 15.0418 26.5887 18.3017 26.5887C21.5615 26.5887 24.1033 24.0051 24.1033 20.787C24.1033 17.5689 21.5198 14.9854 18.3017 14.9854Z" fill="url(#paint0_linear_1039_1335)"/>
<path d="M20.9802 0H0V20.9802C0 31.4856 8.51444 40 19.0198 40H40V19.0198C40 8.51444 31.4856 0 20.9802 0ZM32.5722 16.1702C31.0486 17.1885 30.2014 19.0502 30.2014 20.8701V29.848C30.2014 31.7097 29.1831 32.6444 27.1961 32.7698H24.1033V31.2044C22.367 32.2226 20.4179 32.6862 18.3017 32.6862C11.6527 32.6862 6.40198 27.4354 6.40198 20.7865C6.40198 14.1375 11.6527 8.88678 18.3017 8.88678C21.5616 8.88678 24.3997 10.0304 26.7287 12.3594C26.8541 12.5304 27.0251 12.6976 27.1961 12.8685C27.9597 11.8959 29.1869 10.9612 30.247 10.4141C31.1778 10.9233 32.0669 11.5995 32.9141 12.4468C33.9742 13.5068 33.7614 15.285 32.576 16.174L32.5722 16.1702Z" fill="url(#paint1_linear_1039_1335)"/>
<defs>
<linearGradient id="paint0_linear_1039_1335" x1="14.1717" y1="24.9018" x2="22.4012" y2="16.6723" gradientUnits="userSpaceOnUse">
<stop stop-color="#007BFF"/>
<stop offset="0.1" stop-color="#057DF7"/>
<stop offset="0.24" stop-color="#1385E1"/>
<stop offset="0.43" stop-color="#2A92BD"/>
<stop offset="0.64" stop-color="#4BA48B"/>
<stop offset="0.87" stop-color="#74BB4C"/>
<stop offset="1" stop-color="#8ECA25"/>
</linearGradient>
<linearGradient id="paint1_linear_1039_1335" x1="5.56991" y1="34.4301" x2="34.4301" y2="5.56991" gradientUnits="userSpaceOnUse">
<stop stop-color="#007BFF"/>
<stop offset="0.11" stop-color="#037CF9"/>
<stop offset="0.24" stop-color="#0D82E9"/>
<stop offset="0.4" stop-color="#1E8CCF"/>
<stop offset="0.56" stop-color="#3699AB"/>
<stop offset="0.73" stop-color="#55AA7C"/>
<stop offset="0.91" stop-color="#79BE44"/>
<stop offset="1" stop-color="#8ECA25"/>
</linearGradient>
</defs>
</svg>
