<?xml version="1.0" encoding="UTF-8"?>
<svg width="800px" height="800px" viewBox="0 0 24 24" version="1.1" xmlns="http://www.w3.org/2000/svg" xmlns:xlink="http://www.w3.org/1999/xlink">
  <title>Person Female 1</title>
  <g id="Person-Female-1" stroke="none" stroke-width="1" fill="none" fill-rule="evenodd">
    <!-- Head -->
    <circle cx="12" cy="8" r="4.5" fill="#FDF2F8" stroke="#DB2777" stroke-width="1.5"/>
    <!-- Body -->
    <path d="M4,20 C4,16.5 7.5,14 12,14 C16.5,14 20,16.5 20,20" stroke="#DB2777" stroke-width="1.5" stroke-linecap="round"/>
    <!-- Face details -->
    <circle cx="10" cy="7.5" r="0.5" fill="#DB2777"/>
    <circle cx="14" cy="7.5" r="0.5" fill="#DB2777"/>
    <path d="M10.5,9.5 C11.5,10.5 12.5,10.5 13.5,9.5" stroke="#DB2777" stroke-width="0.75" stroke-linecap="round"/>
    <!-- Hair -->
    <path d="M8,8 C7,5 8,3 12,3 C16,3 17,5 16,8" stroke="#DB2777" stroke-width="1.5" fill="#FBCFE8" stroke-linecap="round"/>
    <path d="M7.5,8 C6.5,9 6,10 6.5,12" stroke="#DB2777" stroke-width="1" stroke-linecap="round"/>
    <path d="M16.5,8 C17.5,9 18,10 17.5,12" stroke="#DB2777" stroke-width="1" stroke-linecap="round"/>
  </g>
</svg>
