<?xml version="1.0" encoding="UTF-8"?>
<svg width="800px" height="800px" viewBox="0 0 24 24" version="1.1" xmlns="http://www.w3.org/2000/svg" xmlns:xlink="http://www.w3.org/1999/xlink">
  <title>Person Male 2</title>
  <g id="Person-Male-2" stroke="none" stroke-width="1" fill="none" fill-rule="evenodd">
    <!-- Head -->
    <circle cx="12" cy="8" r="4.5" fill="#EFF6FF" stroke="#1D4ED8" stroke-width="1.5"/>
    <!-- Body -->
    <path d="M4,20 C4,16.5 7.5,14 12,14 C16.5,14 20,16.5 20,20" stroke="#1D4ED8" stroke-width="1.5" stroke-linecap="round"/>
    <!-- Face details -->
    <circle cx="10" cy="7.5" r="0.5" fill="#1D4ED8"/>
    <circle cx="14" cy="7.5" r="0.5" fill="#1D4ED8"/>
    <path d="M10.5,9.5 C11.5,10.5 12.5,10.5 13.5,9.5" stroke="#1D4ED8" stroke-width="0.75" stroke-linecap="round"/>
    <!-- Hair -->
    <path d="M7.5,5 C8,3.5 10,3 12,3 C14,3 16,3.5 16.5,5" stroke="#1D4ED8" stroke-width="1.5" fill="#93C5FD" stroke-linecap="round"/>
    <!-- Glasses -->
    <path d="M8.5,7 C8,7 8,7.5 8,8 C8,8.5 8.5,9 9,9 L10.5,9 C11,9 11.5,8.5 11.5,8 C11.5,7.5 11,7 10.5,7 L8.5,7" stroke="#1D4ED8" stroke-width="0.75" stroke-linecap="round"/>
    <path d="M13.5,7 C13,7 13,7.5 13,8 C13,8.5 13.5,9 14,9 L15.5,9 C16,9 16.5,8.5 16.5,8 C16.5,7.5 16,7 15.5,7 L13.5,7" stroke="#1D4ED8" stroke-width="0.75" stroke-linecap="round"/>
    <line x1="11.5" y1="8" x2="13" y2="8" stroke="#1D4ED8" stroke-width="0.75"/>
  </g>
</svg>
